<svg width="12" height="15" viewBox="0 0 12 15" fill="none" xmlns="http://www.w3.org/2000/svg">
<path d="M6.00083 15C9.30877 15 12 12.3531 12 9.09971C12 6.56945 10.828 4.3133 9.10718 2.46039C7.69189 0.936424 6.29116 0.0972445 6.23225 0.0622933C5.92176 -0.121984 5.50506 0.12909 5.50506 0.468641V4.51059L3.39736 2.58054C3.21441 2.41299 2.92476 2.42459 2.75703 2.61065C1.95597 3.49908 1.3183 4.43726 0.861764 5.39916C-1.68455 10.7641 1.82557 15 6.00083 15Z" fill="#F80004"/>
<path d="M0.861557 5.39889C1.31809 4.43698 1.95576 3.49881 2.75683 2.61038C2.92455 2.42429 3.2142 2.41272 3.39715 2.58026L5.50485 4.51031V0.468369C5.50485 0.212725 5.74102 0.00732422 5.99023 0V14.9996C1.81954 14.9926 -1.68264 10.7594 0.861557 5.39889Z" fill="#F80004"/>
<path d="M6.00092 14.9995C7.25804 14.9995 8.28076 13.9936 8.28076 12.7572C8.28076 10.7594 6.30376 9.57643 6.21962 9.52704C6.07211 9.44052 5.88742 9.44457 5.74397 9.53729C5.66138 9.59073 3.7211 10.8676 3.7211 12.7572C3.72107 13.9936 4.74379 14.9995 6.00092 14.9995Z" fill="white" fill-opacity="0.47"/>
<path d="M3.72078 12.757C3.72078 10.8674 5.66108 9.59053 5.74365 9.53709C5.81836 9.48878 5.90424 9.46479 5.99023 9.46484V14.999C4.73792 14.9935 3.72078 13.99 3.72078 12.757Z" fill="white" fill-opacity="0.16"/>
</svg>
