<svg width="20" height="20" viewBox="0 0 20 20" fill="none" xmlns="http://www.w3.org/2000/svg">
<g clip-path="url(#clip0_665_12227)">
<g clip-path="url(#clip1_665_12227)">
<path d="M17.1016 2.57812H16.6016V4.32813C16.6016 4.9375 16.1094 5.42969 15.5 5.42969H14.5391C13.9297 5.42969 13.4375 4.9375 13.4375 4.32813V2.57812H11.5625V4.32813C11.5625 4.9375 11.0703 5.42969 10.4609 5.42969H9.5C8.89062 5.42969 8.39844 4.9375 8.39844 4.32813V2.57812H6.52344V4.32813C6.52344 4.9375 6.03125 5.42969 5.42188 5.42969H4.46094C3.85156 5.42969 3.35938 4.9375 3.35938 4.32813V2.57812H2.89844C1.29687 2.57812 0 3.875 0 5.47656V17.0977C0 18.6992 1.29687 19.9961 2.89844 19.9961H17.0977C18.6992 19.9961 19.9961 18.6992 19.9961 17.0977V5.47656C20 3.875 18.7031 2.57812 17.1016 2.57812ZM2.28516 9.94141C2.28516 9.41406 2.71484 8.98438 3.24219 8.98438H4.96094C5.48828 8.98438 5.91797 9.41406 5.91797 9.94141C5.91797 10.4688 5.48828 10.8984 4.96094 10.8984H3.24219C2.71484 10.8984 2.28516 10.4688 2.28516 9.94141ZM5.9375 14.3164C5.9375 14.8438 5.50781 15.2734 4.98047 15.2734H3.26172C2.73438 15.2734 2.30469 14.8438 2.30469 14.3164C2.30469 13.7891 2.73438 13.3594 3.26172 13.3594H4.98047C5.50781 13.3594 5.9375 13.7891 5.9375 14.3164ZM8.18359 9.94141C8.18359 9.41406 8.61328 8.98438 9.14062 8.98438H10.8594C11.3867 8.98438 11.8164 9.41406 11.8164 9.94141C11.8164 10.4688 11.3867 10.8984 10.8594 10.8984H9.14062C8.61328 10.8984 8.18359 10.4688 8.18359 9.94141ZM11.8359 14.3164C11.8359 14.8438 11.4062 15.2734 10.8789 15.2734H9.16016C8.63281 15.2734 8.20312 14.8438 8.20312 14.3164C8.20312 13.7891 8.63281 13.3594 9.16016 13.3594H10.8789C11.4062 13.3594 11.8359 13.7891 11.8359 14.3164ZM14.082 9.94141C14.082 9.41406 14.5117 8.98438 15.0391 8.98438H16.7578C17.2852 8.98438 17.7148 9.41406 17.7148 9.94141C17.7148 10.4688 17.2852 10.8984 16.7578 10.8984H15.0391C14.5117 10.8984 14.082 10.4688 14.082 9.94141ZM17.7344 14.3164C17.7344 14.8438 17.3047 15.2734 16.7773 15.2734H15.0586C14.5312 15.2734 14.1016 14.8438 14.1016 14.3164C14.1016 13.7891 14.5312 13.3594 15.0586 13.3594H16.7773C17.3047 13.3594 17.7344 13.7891 17.7344 14.3164Z" fill="#8F8F8F"/>
<path d="M4.46094 0H5.42188C5.70703 0 5.9375 0.230469 5.9375 0.515625V4.32812C5.9375 4.61328 5.70703 4.84375 5.42188 4.84375H4.46094C4.17578 4.84375 3.94531 4.61328 3.94531 4.32812V0.515625C3.94531 0.230469 4.17578 0 4.46094 0Z" fill="#8F8F8F"/>
<path d="M9.5 0H10.4609C10.7461 0 10.9766 0.230469 10.9766 0.515625V4.32812C10.9766 4.61328 10.7461 4.84375 10.4609 4.84375H9.5C9.21484 4.84375 8.98438 4.61328 8.98438 4.32812V0.515625C8.98438 0.230469 9.21484 0 9.5 0Z" fill="#8F8F8F"/>
<path d="M14.5391 0H15.5C15.7852 0 16.0156 0.230469 16.0156 0.515625V4.32812C16.0156 4.61328 15.7852 4.84375 15.5 4.84375H14.5391C14.2539 4.84375 14.0234 4.61328 14.0234 4.32812V0.515625C14.0234 0.230469 14.2539 0 14.5391 0Z" fill="#8F8F8F"/>
</g>
</g>
<defs>
<clipPath id="clip0_665_12227">
<rect width="20" height="20" fill="white"/>
</clipPath>
<clipPath id="clip1_665_12227">
<rect width="20" height="20" fill="white"/>
</clipPath>
</defs>
</svg>
