<svg width="18" height="18" viewBox="0 0 18 18" fill="none" xmlns="http://www.w3.org/2000/svg">
<path d="M8.89132 4.07824C9.56671 3.40285 9.56671 2.30784 8.89132 1.63246C8.21594 0.957075 7.12093 0.957075 6.44555 1.63246C5.77016 2.30784 5.77016 3.40285 6.44555 4.07824C7.12093 4.75362 8.21594 4.75362 8.89132 4.07824Z" fill="#00A417"/>
<path d="M15.1368 1.125H10.2374C10.0799 1.125 9.95617 1.25157 9.95617 1.40625C9.95617 1.56093 10.0799 1.6875 10.2374 1.6875H11.9615V2.98969H12.9177C13.0724 2.98969 13.199 3.11344 13.199 3.27094C13.199 3.42562 13.0724 3.55219 12.9177 3.55219H11.9615V4.62657H13.6912C13.8458 4.62657 13.9724 4.75311 13.9724 4.90782C13.9724 5.0625 13.8458 5.18907 13.6912 5.18907H11.9615V6.26343H12.9177C13.0724 6.26343 13.199 6.38999 13.199 6.54468C13.199 6.69938 13.0724 6.82593 12.9177 6.82593H11.9615V7.9003H13.6912C13.8458 7.9003 13.9724 8.02687 13.9724 8.18155C13.9724 8.33626 13.8458 8.4628 13.6912 8.4628H11.9615V9.53718H12.9177C13.0724 9.53718 13.199 9.66375 13.199 9.81843C13.199 9.97312 13.0724 10.0997 12.9177 10.0997H11.9615V11.1741H13.6912C13.8458 11.1741 13.9724 11.3006 13.9724 11.4553C13.9724 11.61 13.8458 11.7366 13.6912 11.7366H11.9615V12.8109H12.9177C13.0724 12.8109 13.199 12.9375 13.199 13.0922C13.199 13.2469 13.0724 13.3734 12.9177 13.3734H11.9615V14.4478H13.6912C13.8458 14.4478 13.9724 14.5744 13.9724 14.7291C13.9724 14.8866 13.8458 15.0103 13.6912 15.0103H11.9615V16.3125H9.43585C9.52304 16.155 9.57366 15.975 9.57366 15.7838V11.2022C9.70304 11.2641 9.8493 11.3006 10.0012 11.3006C10.5468 11.3006 10.9884 10.8562 10.9884 10.3106V7.00593C10.9884 6.02156 10.1896 5.22282 9.20522 5.22282H6.13679C5.15242 5.22282 4.35084 6.02156 4.35084 7.00593V10.3106C4.35084 10.8562 4.79522 11.3006 5.34085 11.3006C5.49274 11.3006 5.63897 11.2669 5.76554 11.2022V15.7838C5.76554 15.975 5.81616 16.155 5.90335 16.3125H2.86304C2.70554 16.3125 2.58179 16.4391 2.58179 16.5938C2.58179 16.7484 2.70554 16.875 2.86304 16.875H15.1368C15.2943 16.875 15.418 16.7484 15.418 16.5938V1.40625C15.418 1.25157 15.2943 1.125 15.1368 1.125Z" fill="#00A417"/>
</svg>
