<svg width="129" height="129" viewBox="0 0 129 129" fill="none" xmlns="http://www.w3.org/2000/svg">
<path d="M64.5564 54.7218C74.4207 54.7218 82.4173 46.7252 82.4173 36.8609C82.4173 26.9966 74.4207 19 64.5564 19C54.692 19 46.6954 26.9966 46.6954 36.8609C46.6954 46.7252 54.692 54.7218 64.5564 54.7218Z" fill="#E6F6E8"/>
<path d="M100.689 54.7218C106.925 54.7218 111.98 49.6665 111.98 43.4304C111.98 37.1944 106.925 32.139 100.689 32.139C94.4527 32.139 89.3974 37.1944 89.3974 43.4304C89.3974 49.6665 94.4527 54.7218 100.689 54.7218Z" fill="#E6F6E8"/>
<path d="M28.4239 54.7218C34.66 54.7218 39.7153 49.6665 39.7153 43.4304C39.7153 37.1944 34.66 32.139 28.4239 32.139C22.1878 32.139 17.1325 37.1944 17.1325 43.4304C17.1325 49.6665 22.1878 54.7218 28.4239 54.7218Z" fill="#E6F6E8"/>
<path d="M39.549 64.8612C35.1042 61.2196 31.079 61.7017 25.9397 61.7017C18.2534 61.7017 12 67.9181 12 75.5572V97.9778C12 101.295 14.7079 103.993 18.0378 103.993C32.414 103.993 30.6821 104.253 30.6821 103.373C30.6821 87.4858 28.8004 75.835 39.549 64.8612Z" fill="#E6F6E8"/>
<path d="M69.4444 61.7838C60.4679 61.035 52.6656 61.7924 45.9357 67.3473C34.6737 76.3681 36.841 88.5142 36.841 103.373C36.841 107.304 40.0395 110.563 44.0305 110.563C87.3653 110.563 89.09 111.96 91.6597 106.27C92.5024 104.345 92.2715 104.957 92.2715 86.5468C92.2715 71.9242 79.6101 61.7838 69.4444 61.7838Z" fill="#E6F6E8"/>
<path d="M103.173 61.7019C98.0053 61.7019 94.0022 61.2248 89.5635 64.8614C100.232 75.7537 98.4303 86.6097 98.4303 103.373C98.4303 104.259 96.9926 103.993 110.859 103.993C114.308 103.993 117.112 101.199 117.112 97.7645V75.5574C117.112 67.9183 110.859 61.7019 103.173 61.7019Z" fill="#E6F6E8"/>
</svg>
