<svg width="49" height="49" viewBox="0 0 49 49" fill="none" xmlns="http://www.w3.org/2000/svg">
<g filter="url(#filter0_d_4218_5801)">
<circle cx="24.5" cy="24.5" r="20" fill="url(#paint0_linear_4218_5801)" fill-opacity="0.5" shape-rendering="crispEdges"/>
<circle cx="24.5" cy="24.5" r="20" stroke="url(#paint1_linear_4218_5801)" stroke-opacity="0.7" shape-rendering="crispEdges"/>
</g>
<path d="M33.1241 17.5H29.8759C29.6683 17.5 29.5 17.6492 29.5 17.8333V31.1667C29.5 31.3508 29.6683 31.5 29.8759 31.5H33.1241C33.3317 31.5 33.5 31.3508 33.5 31.1667V17.8333C33.5 17.6492 33.3317 17.5 33.1241 17.5Z" fill="#00A417"/>
<path d="M22.218 22.5H19.782C19.6262 22.5 19.5 22.655 19.5 22.8462V31.1538C19.5 31.345 19.6262 31.5 19.782 31.5H22.218C22.3738 31.5 22.5 31.345 22.5 31.1538V22.8462C22.5 22.655 22.3738 22.5 22.218 22.5Z" fill="#00A417"/>
<path d="M17.1241 25.5H13.8759C13.6683 25.5 13.5 25.6492 13.5 25.8333V31.1667C13.5 31.3508 13.6683 31.5 13.8759 31.5H17.1241C17.3317 31.5 17.5 31.3508 17.5 31.1667V25.8333C17.5 25.6492 17.3317 25.5 17.1241 25.5Z" fill="#00A417"/>
<path d="M28.1241 19.5H24.8759C24.6683 19.5 24.5 19.658 24.5 19.8529V31.1471C24.5 31.342 24.6683 31.5 24.8759 31.5H28.1241C28.3317 31.5 28.5 31.342 28.5 31.1471V19.8529C28.5 19.658 28.3317 19.5 28.1241 19.5Z" fill="#00A417"/>
<defs>
<filter id="filter0_d_4218_5801" x="0" y="0" width="49" height="49" filterUnits="userSpaceOnUse" color-interpolation-filters="sRGB">
<feFlood flood-opacity="0" result="BackgroundImageFix"/>
<feColorMatrix in="SourceAlpha" type="matrix" values="0 0 0 0 0 0 0 0 0 0 0 0 0 0 0 0 0 0 127 0" result="hardAlpha"/>
<feOffset/>
<feGaussianBlur stdDeviation="2"/>
<feComposite in2="hardAlpha" operator="out"/>
<feColorMatrix type="matrix" values="0 0 0 0 0 0 0 0 0 0 0 0 0 0 0 0 0 0 0.1 0"/>
<feBlend mode="normal" in2="BackgroundImageFix" result="effect1_dropShadow_4218_5801"/>
<feBlend mode="normal" in="SourceGraphic" in2="effect1_dropShadow_4218_5801" result="shape"/>
</filter>
<linearGradient id="paint0_linear_4218_5801" x1="24.5" y1="4.5" x2="24.5" y2="44.5" gradientUnits="userSpaceOnUse">
<stop stop-color="#00A417"/>
<stop offset="0.25" stop-color="#80D28B"/>
<stop offset="0.5" stop-color="white"/>
<stop offset="1" stop-color="#80D28B"/>
<stop offset="1" stop-color="#00A417"/>
</linearGradient>
<linearGradient id="paint1_linear_4218_5801" x1="35.7" y1="-2.7" x2="20.1" y2="57.7" gradientUnits="userSpaceOnUse">
<stop stop-color="#00A417"/>
<stop offset="0.25" stop-color="#76D183"/>
<stop offset="0.5" stop-color="#B4FFC0"/>
<stop offset="0.75" stop-color="#76D183"/>
<stop offset="1" stop-color="#00A417"/>
</linearGradient>
</defs>
</svg>
